<svg xmlns="http://www.w3.org/2000/svg" xmlns:xlink="http://www.w3.org/1999/xlink" viewBox="0 0 104.05 23.79"><defs><style>.cls-1{fill:url(#무제_그라디언트);}.cls-2{fill:url(#무제_그라디언트_6);}.cls-3{fill:url(#무제_그라디언트_3);}.cls-4{fill:url(#무제_그라디언트_4);}.cls-5{fill:url(#무제_그라디언트_5);}.cls-6{fill:url(#무제_그라디언트_6-2);}.cls-7,.cls-8{fill:none;stroke:#fff;isolation:isolate;}.cls-7{stroke-linecap:round;stroke-width:2.5px;opacity:0.5;}.cls-8{stroke-width:1.5px;opacity:0.3;}.cls-9{fill:#5ac8fa;}.cls-10{fill:#4496bb;}</style><linearGradient id="무제_그라디언트" x1="38.26" y1="31.84" x2="38.26" y2="31.57" gradientTransform="matrix(60, 0, 0, -90, -2287.45, 2865.5)" gradientUnits="userSpaceOnUse"><stop offset="0" stop-color="#7dd3fc"/><stop offset="0.35" stop-color="#38bdf8"/><stop offset="0.7" stop-color="#0ea5e9"/><stop offset="1" stop-color="#0369a1"/></linearGradient><linearGradient id="무제_그라디언트_6" x1="24.87" y1="34.65" x2="24.87" y2="34.39" gradientTransform="matrix(6, 0, 0, -23, -145.24, 812)" gradientUnits="userSpaceOnUse"><stop offset="0" stop-color="#fff" stop-opacity="0.9"/><stop offset="1" stop-color="#fff" stop-opacity="0.7"/></linearGradient><linearGradient id="무제_그라디언트_3" x1="23.89" y1="33.96" x2="23.89" y2="33.69" gradientTransform="matrix(6, 0, 0, -28, -137.24, 964.5)" gradientUnits="userSpaceOnUse"><stop offset="0" stop-color="#fff" stop-opacity="0.95"/><stop offset="1" stop-color="#fff" stop-opacity="0.8"/></linearGradient><linearGradient id="무제_그라디언트_4" x1="22.91" y1="33.32" x2="22.91" y2="33.05" gradientTransform="matrix(6, 0, 0, -35, -129.24, 1178)" gradientUnits="userSpaceOnUse"><stop offset="0" stop-color="#fff"/><stop offset="1" stop-color="#fff" stop-opacity="0.85"/></linearGradient><linearGradient id="무제_그라디언트_5" x1="21.92" y1="34.2" x2="21.92" y2="33.94" gradientTransform="matrix(6, 0, 0, -26, -121.24, 903.5)" gradientUnits="userSpaceOnUse"><stop offset="0" stop-color="#fff" stop-opacity="0.92"/><stop offset="1" stop-color="#fff" stop-opacity="0.75"/></linearGradient><linearGradient id="무제_그라디언트_6-2" x1="20.94" y1="35.02" x2="20.94" y2="34.76" gradientTransform="matrix(6, 0, 0, -21, -113.24, 751)" xlink:href="#무제_그라디언트_6"/></defs><g id="레이어_2" data-name="레이어 2"><g id="레이어_1-2" data-name="레이어 1"><path class="cls-1" d="M7.93,0S0,9.25,0,14.54s3.3,9.25,7.93,9.25,7.93-4,7.93-9.25S7.93,0,7.93,0Z"/><path class="cls-2" d="M4,15.06H4a.8.8,0,0,1,.8.8v4.49a.79.79,0,0,1-.8.79H4a.79.79,0,0,1-.79-.79V15.86A.8.8,0,0,1,4,15.06Z"/><path class="cls-3" d="M6.08,13.74h0a.79.79,0,0,1,.79.8v5.81a.79.79,0,0,1-.79.79h0a.79.79,0,0,1-.79-.79V14.54A.79.79,0,0,1,6.08,13.74Z"/><path class="cls-4" d="M8.19,11.89h0a.8.8,0,0,1,.8.8v7.66a.79.79,0,0,1-.8.79h0a.79.79,0,0,1-.79-.79V12.69A.79.79,0,0,1,8.19,11.89Z"/><path class="cls-5" d="M10.31,14.27h0a.8.8,0,0,1,.79.79v5.29a.79.79,0,0,1-.79.79h0a.79.79,0,0,1-.8-.79V15.06A.8.8,0,0,1,10.31,14.27Z"/><path class="cls-6" d="M12.42,15.59h0a.79.79,0,0,1,.79.8v4a.79.79,0,0,1-.79.79h0a.79.79,0,0,1-.79-.79v-4A.79.79,0,0,1,12.42,15.59Z"/><path class="cls-7" d="M2.11,21.14a36,36,0,0,1,5.82-.53,35.79,35.79,0,0,1,5.81.53"/><line class="cls-8" x1="2.11" y1="21.67" x2="13.74" y2="21.67"/><path class="cls-9" d="M36,18.51a.82.82,0,0,1,.89.9.81.81,0,0,1-.89.88H24.71a1.83,1.83,0,0,1-2-1.95v-.13a1.74,1.74,0,0,1,2-1.84h8.44v-.32c0-.14-.08-.23-.29-.23H23.78a.85.85,0,0,1-.89-.89.82.82,0,0,1,.89-.88h4.28v-.69H23.44c-.76,0-1.15-.35-1.15-1s.37-1,1.15-1H35.89c.77,0,1.15.38,1.15,1s-.39,1-1.15,1H31.27v.69h3.36c1.34,0,1.76.51,1.76,1.47V18H26.45c-.22,0-.33.11-.33.28s.11.27.33.27ZM25,10.66c-1.75,0-2.06-.49-2.06-2.19V7.92c0-1.7.31-2.19,2.06-2.19h9.3c1.75,0,2.07.49,2.07,2.19v2.74Zm1.08-2.31c0,.15,0,.25.31.25h6.84V8c0-.13,0-.24-.31-.24H26.4c-.3,0-.31.11-.31.24Z"/><path class="cls-9" d="M44.16,8.77V8.63a.25.25,0,0,0-.28-.27H40a1.18,1.18,0,0,1-1.29-1.23A1.16,1.16,0,0,1,40,5.92h5.12c1.56,0,2.15.63,2.15,2v.87c0,3.12-3.27,4.69-7.58,4.33a1.25,1.25,0,0,1-1.25-1.36,1.16,1.16,0,0,1,1.36-1.08C42.84,10.8,44.16,10,44.16,8.77ZM41.21,20.29a2,2,0,0,1-2.2-2v-.38c0-1.07.77-1.8,2.2-1.8h8v-.37c0-.19,0-.27-.25-.27H40.05a.83.83,0,0,1-.87-.92.87.87,0,0,1,.87-.93H50.5c1.38,0,1.87.41,1.87,1.63v2.55H42.68c-.22,0-.33.13-.33.28v.08c0,.15.11.27.33.27h9.2a.89.89,0,0,1,.9,1,.85.85,0,0,1-.9.91Zm8-7.17V7.05a1.58,1.58,0,0,1,3.15,0v6.07Z"/><path class="cls-10" d="M64.51,8.79V11a11.3,11.3,0,0,1-.1,1.57c2.24.76,3.69,2.49,3.5,6.89h-3c.23-2.17-.19-3.45-1.15-4.1-1.11,2.79-3.12,4.21-4.37,4.21a1.3,1.3,0,0,1-1.45-1.28,1.32,1.32,0,0,1,.69-1.18c1.85-1.18,2.86-3.12,2.86-6.59V8.79H59.34A1.27,1.27,0,0,1,58,7.45a1.28,1.28,0,0,1,1.34-1.36h7.3a1.25,1.25,0,0,1,1.3,1.36,1.24,1.24,0,0,1-1.3,1.34Zm8-1.74V20.29H69.38V7.05a1.58,1.58,0,0,1,3.15,0Z"/><path class="cls-10" d="M83.18,8.6c0,3.91-3.34,5.75-7.7,5.44a1.13,1.13,0,0,1-1.11-1.25,1,1,0,0,1,1.23-.95c2,.15,3.38-.17,4.15-1a3.34,3.34,0,0,1-1,.17l-3.08,0a1.06,1.06,0,1,1,0-2.11h4.81V8.5c0-.23-.11-.31-.31-.31H75.79a1.06,1.06,0,0,1-1.15-1.11A1,1,0,0,1,75.79,6h5.3c1.56,0,2.09.64,2.09,1.9Zm3,5.86c1.81,0,2.16.57,2.16,2.26v3.57h-11c-1.91,0-2.25-.56-2.25-2.35V16.81c0-1.78.34-2.35,2.25-2.35Zm-1,3.67V17c0-.29-.08-.37-.34-.37H78.49c-.27,0-.35.07-.35.37v.79c0,.31.08.37.35.37ZM88.29,14H85.14V7.05a1.58,1.58,0,0,1,3.15,0Z"/><path class="cls-10" d="M90.15,10c0-2.73,1.89-4.23,4.48-4.23S99.12,7.23,99.12,10v5.78c0,2.76-1.91,4.24-4.48,4.24s-4.49-1.48-4.49-4.24Zm3.07,5.89a1.41,1.41,0,0,0,1.41,1.55,1.42,1.42,0,0,0,1.43-1.55v-6a1.41,1.41,0,0,0-1.43-1.53,1.43,1.43,0,0,0-1.41,1.53Zm7.68,4.43V7.05a1.58,1.58,0,0,1,3.15,0V20.29Z"/></g></g></svg>