<svg width="140" height="140" viewBox="0 0 140 140" fill="none" xmlns="http://www.w3.org/2000/svg">
  <defs>
    <linearGradient id="urbanDropGradient" x1="0%" y1="0%" x2="0%" y2="100%">
      <stop offset="0%" stop-color="#7dd3fc" />
      <stop offset="35%" stop-color="#38bdf8" />
      <stop offset="70%" stop-color="#0ea5e9" />
      <stop offset="100%" stop-color="#0369a1" />
    </linearGradient>
    <linearGradient id="barGrad1" x1="0%" y1="0%" x2="0%" y2="100%">
      <stop offset="0%" stop-color="#ffffff" stop-opacity="0.9" />
      <stop offset="100%" stop-color="#ffffff" stop-opacity="0.7" />
    </linearGradient>
    <linearGradient id="barGrad2" x1="0%" y1="0%" x2="0%" y2="100%">
      <stop offset="0%" stop-color="#ffffff" stop-opacity="0.95" />
      <stop offset="100%" stop-color="#ffffff" stop-opacity="0.8" />
    </linearGradient>
    <linearGradient id="barGrad3" x1="0%" y1="0%" x2="0%" y2="100%">
      <stop offset="0%" stop-color="#ffffff" stop-opacity="1" />
      <stop offset="100%" stop-color="#ffffff" stop-opacity="0.85" />
    </linearGradient>
    <linearGradient id="barGrad4" x1="0%" y1="0%" x2="0%" y2="100%">
      <stop offset="0%" stop-color="#ffffff" stop-opacity="0.92" />
      <stop offset="100%" stop-color="#ffffff" stop-opacity="0.75" />
    </linearGradient>
  </defs>
  <path 
    d="M70 15 C70 15, 40 50, 40 70 C40 90, 52.5 105, 70 105 C87.5 105, 100 90, 100 70 C100 50, 70 15, 70 15 Z" 
    fill="url(#urbanDropGradient)"
  />
  <rect x="52" y="72" width="6" height="23" fill="url(#barGrad1)" rx="3" ry="3" />
  <rect x="60" y="67" width="6" height="28" fill="url(#barGrad2)" rx="3" ry="3" />
  <rect x="68" y="60" width="6" height="35" fill="url(#barGrad3)" rx="3" ry="3" />
  <rect x="76" y="69" width="6" height="26" fill="url(#barGrad4)" rx="3" ry="3" />
  <rect x="84" y="74" width="6" height="21" fill="url(#barGrad1)" rx="3" ry="3" />
  <path 
    d="M48 95 Q60 93, 70 93 T92 95" 
    stroke="white" 
    stroke-width="2.5" 
    fill="none"
    opacity="0.5"
    stroke-linecap="round"
  />
  <line x1="48" y1="97" x2="92" y2="97" stroke="white" stroke-width="1.5" opacity="0.3" />
</svg>